<svg width="60" height="40" viewBox="0 0 60 40" fill="none" xmlns="http://www.w3.org/2000/svg">
<path d="M0 20C0 10.5719 0 5.85786 2.92893 2.92893C5.85786 0 10.5719 0 20 0H40C49.4281 0 54.1421 0 57.0711 2.92893C60 5.85786 60 10.5719 60 20V20C60 29.4281 60 34.1421 57.0711 37.0711C54.1421 40 49.4281 40 40 40H20C10.5719 40 5.85786 40 2.92893 37.0711C0 34.1421 0 29.4281 0 20V20Z" fill="#C51010"/>
<path d="M38.958 23.325C39.162 22.839 38.579 22.425 38.09 22.641C37.1126 23.07 36.0565 23.2907 34.989 23.289C30.804 23.289 27.412 19.965 27.412 15.864C27.4105 14.4793 27.8039 13.123 28.546 11.954C28.83 11.506 28.489 10.886 27.969 11.018C23.96 12.041 21 15.613 21 19.862C21 24.909 25.175 29 30.326 29C34.226 29 37.566 26.655 38.958 23.325Z" stroke="black" stroke-width="2"/>
<path d="M33.611 11.103C33.081 10.749 32.449 11.381 32.802 11.911L33.432 12.856C33.6876 13.2392 33.824 13.6894 33.824 14.15C33.824 14.6106 33.6876 15.0608 33.432 15.444L32.802 16.389C32.449 16.919 33.082 17.551 33.612 17.197L34.556 16.567C34.9392 16.3114 35.3894 16.1751 35.85 16.1751C36.3106 16.1751 36.7608 16.3114 37.144 16.567L38.089 17.197C38.619 17.551 39.251 16.919 38.897 16.389L38.267 15.444C38.0114 15.0608 37.8751 14.6106 37.8751 14.15C37.8751 13.6894 38.0114 13.2392 38.267 12.856L38.897 11.911C39.251 11.381 38.619 10.749 38.088 11.103L37.144 11.733C36.7608 11.9886 36.3106 12.125 35.85 12.125C35.3894 12.125 34.9392 11.9886 34.556 11.733L33.611 11.103V11.103Z" stroke="black" stroke-width="2"/>
</svg>
