<svg width="60" height="40" viewBox="0 0 60 40" fill="none" xmlns="http://www.w3.org/2000/svg">
<path d="M0 20C0 10.5719 0 5.85786 2.92893 2.92893C5.85786 0 10.5719 0 20 0H40C49.4281 0 54.1421 0 57.0711 2.92893C60 5.85786 60 10.5719 60 20V20C60 29.4281 60 34.1421 57.0711 37.0711C54.1421 40 49.4281 40 40 40H20C10.5719 40 5.85786 40 2.92893 37.0711C0 34.1421 0 29.4281 0 20V20Z" fill="#1F1B1B"/>
<path d="M27.0656 11.1514L25.313 6.875L23.5594 11.1514C24.1378 11.0471 24.7243 10.9933 25.312 10.9906C25.912 10.9906 26.4961 11.0516 27.0656 11.1514" fill="white"/>
<path d="M20.0531 16.2495C20.0531 15.6505 20.1141 15.0664 20.2139 14.4969L15.9375 16.2505L20.2139 18.0031C20.1095 17.4244 20.0557 16.8376 20.0531 16.2495" fill="white"/>
<path d="M30.1575 13.8842L31.942 9.62094L27.6778 11.405C28.1608 11.7402 28.6138 12.1168 29.0315 12.5305C29.4454 12.9482 29.8222 13.4012 30.1575 13.8842" fill="white"/>
<path d="M21.5935 12.5305C22.0111 12.1167 22.4641 11.7401 22.9472 11.405L18.683 9.62094L20.4675 13.8842C20.8028 13.4012 21.1796 12.9482 21.5935 12.5305" fill="white"/>
<path d="M41.0283 21.6978C40.9378 21.6453 40.8464 21.5947 40.7541 21.5473L40.7545 21.5037C40.7545 17.6651 37.6683 14.5409 33.8747 14.5409C33.0647 14.5409 32.2767 14.6881 31.5384 14.9595L30.4111 14.4973C30.4645 14.802 30.4973 15.1133 30.5217 15.4269C30.2255 15.5942 29.9438 15.7855 29.6742 15.9955C29.5416 13.6986 27.6422 11.8756 25.312 11.8756C24.1518 11.8756 23.039 12.3365 22.2186 13.157C21.3981 13.9774 20.9372 15.0902 20.9372 16.2505C20.9372 17.5334 21.4969 18.6786 22.3772 19.4778C22.1592 19.6794 21.9539 19.8945 21.7622 20.1233C21.7064 20.0708 21.6469 20.0239 21.5925 19.9695C21.1788 19.5518 20.8022 19.0988 20.467 18.6158L18.683 22.8795L20.6161 22.0705C20.5434 22.2603 20.4773 22.4539 20.4211 22.6522L20.2228 23.3506C20.0069 23.4913 19.8017 23.6476 19.6088 23.8184C19.0433 24.3195 18.5907 24.935 18.2811 25.6242C17.9714 26.3133 17.8117 27.0604 17.8125 27.8159C17.8125 30.1109 19.26 32.1355 21.4144 32.8555C21.9441 33.0345 22.4991 33.125 23.0597 33.125H38.0114C38.4623 33.125 38.9203 33.0715 39.3736 32.9647C42.1327 32.3239 44.0625 29.8709 44.0625 27.0012C44.0625 24.8215 42.9 22.7895 41.0283 21.6978ZM38.9775 31.2406C38.6611 31.3159 38.3371 31.3544 38.0119 31.3555H23.0597C22.6868 31.3552 22.3165 31.2941 21.9633 31.1745C20.5692 30.7086 19.5623 29.3811 19.5623 27.8155C19.5623 26.75 20.0283 25.7975 20.7628 25.1492C21.0975 24.8523 21.4865 24.623 21.9084 24.4742C22.2782 24.3425 22.6677 24.2746 23.0602 24.2736C24.1875 24.2736 25.1878 24.8159 25.8277 25.655L25.8586 25.6545C25.1161 24.2712 23.7281 23.2958 22.103 23.1392C22.7077 21.0059 24.6473 19.4408 26.9494 19.4408C27.195 19.4408 27.4341 19.4647 27.6703 19.4994C28.1377 19.5673 28.5839 19.6972 29.0006 19.8847C29.7808 20.2399 30.4589 20.7861 30.9722 21.4726C31.4856 22.1592 31.8177 22.964 31.9378 23.8128L31.9388 23.7828C31.9408 22.8353 31.7088 21.902 31.2636 21.0656C30.8184 20.2293 30.1736 19.5158 29.3864 18.9884C30.2616 17.3928 31.9425 16.31 33.8747 16.31C36.7078 16.31 39.0038 18.6355 39.0038 21.5028C39.0038 21.6425 38.9944 21.778 38.9836 21.9144C37.8319 22.0032 36.7403 22.4642 35.8734 23.2278C36.7724 22.703 37.833 22.5271 38.8533 22.7337C39.3112 22.8262 39.7507 22.9941 40.1536 23.2306C40.8117 23.6153 41.3574 24.1659 41.7361 24.8275C42.1148 25.4891 42.3133 26.2385 42.3117 27.0008C42.3127 29.0675 40.8877 30.7967 38.9775 31.2406" fill="white"/>
</svg>
